<?xml version="1.0" encoding="utf-8"?>
<svg xmlns="http://www.w3.org/2000/svg" viewBox="-2.114 210.678 503.523 89.213">
  <path d="M 24.497 225.614 L 41.658 226.839 L 35.53 241.549 L 24.497 225.614 Z" fill="#6E7D60" style=""/>
  <path d="M 33.936 255.032 L 44.109 228.065" stroke="#6E7D60" stroke-width="1.33" stroke-linecap="round" style=""/>
  <circle cx="-54.226" cy="241.367" r="5.541" transform="matrix(-1, 0, 0, 1, 0, 0)" stroke="#6E7D60" stroke-width="1.33" style="fill-opacity: 0;"/>
  <path d="M 71.259 254.814 C 73.129 256.219 74.826 257.888 76.098 259.263 C 77.461 260.731 77.216 262.996 75.676 264.282 C 74.19 265.52 72.003 265.419 70.638 264.052 L 68.703 262.119 C 68.025 261.44 67.21 260.912 66.308 260.577 L 62.726 259.234 C 61.798 258.884 60.862 259.734 61.123 260.692 L 68.276 287.159 C 68.937 289.613 67.527 292.151 65.09 292.881 C 62.573 293.637 59.924 292.176 59.219 289.64 L 56.23 278.882 C 56.126 278.498 55.683 278.321 55.343 278.528 L 54.164 279.236 C 52.469 280.25 51.193 281.84 50.571 283.715 L 49.308 287.495 C 48.56 289.746 46.128 290.959 43.88 290.211 C 41.661 289.472 40.444 287.091 41.138 284.858 L 43.059 278.721 C 43.898 276.037 45.746 273.781 48.217 272.435 L 53.347 269.635 C 53.862 269.353 54.118 268.759 53.962 268.191 L 51.849 260.441 C 51.685 259.839 51.023 259.528 50.457 259.786 L 45.008 262.265 C 42.9 263.221 40.476 263.175 38.403 262.141 L 35.243 260.559 C 33.775 259.828 33.04 258.153 33.49 256.574 C 34.037 254.659 36.1 253.62 37.964 254.319 L 39.722 254.975 C 40.974 255.446 42.363 255.409 43.588 254.873 L 50.032 252.056 C 53.941 250.343 58.288 249.702 62.392 250.882 C 65.428 251.751 68.905 253.041 71.259 254.814 Z" stroke="#6E7D60" stroke-width="1.33" style="fill-opacity: 0;"/>
  <path d="M 333.683 260.729 C 329.91 260.729 326.781 263.858 326.781 267.633 C 326.781 271.408 329.91 274.537 333.683 274.537 C 337.459 274.537 340.588 271.408 340.588 267.633 C 340.588 263.858 337.459 260.729 333.683 260.729 Z" fill="#6E7D60" style=""/>
  <text style="white-space: pre; fill: rgb(51, 51, 51); font-family: Arial, sans-serif; font-size: 53.8px;" x="146.748" y="288.084"> </text>
  <text style="white-space: pre; fill: rgb(51, 51, 51); font-family: Arial, sans-serif; font-size: 53.8px;" x="314.712" y="422.036"> </text>
  <text style="white-space: pre; fill: rgb(51, 51, 51); font-family: Arial, sans-serif; font-size: 68.6px;" x="221.483" y="274.616"> </text>
  <text style="fill: rgb(110, 125, 96); font-family: Arial, sans-serif; font-size: 58.1px; font-weight: 700; white-space: pre;" x="89.948" y="287.671">旅遊</text>
  <text style="fill: rgb(110, 125, 96); font-family: Arial, sans-serif; font-size: 58.1px; font-weight: 700; white-space: pre;" x="207.861" y="287.9">走走</text>
  <text style="fill: rgb(110, 125, 96); font-family: Arial, sans-serif; font-size: 28px; white-space: pre;" transform="matrix(1.788946, 0, 0, 1.788946, -268.071966, -270.268102)"><tspan x="346.214" y="309.105">Travel</tspan><tspan x="346.214" dy="1em">​</tspan><tspan x="346.214" dy="1em">​</tspan></text>
  <text style="white-space: pre; fill: rgb(51, 51, 51); font-family: Arial, sans-serif; font-size: 53.8px;" x="497.327" y="405.967"> </text>
</svg>